# xmcd CD database file
#
# Track frame offsets:
#	182
#	16582
#	34470
#	53982
#	70645
#	89305
#	106945
#	120435
#	137337
#	153795
#
# Disc length: 2321 seconds
#
# Revision: 5
# Processed by: cddbd v1.5.1PL0 Copyright (c) Steve Scherf et al.
# Submitted via: CDex 1.51
#
DISCID=6f090f0a
DTITLE=Gary Morris - Stones
DYEAR=1989
DGENRE=Country
TTITLE0=Chrome Plated Heart
TTITLE1=Shelter
TTITLE2=Never Had A Love Song
TTITLE3=Bread And Water
TTITLE4=Stones (Dig A Little Deeper)
TTITLE5=Sooner Or Later
TTITLE6=The Jaws Of Modern Romance
TTITLE7=So Little Love In The World
TTITLE8=Stand My Ground
TTITLE9=Love Will Provide
EXTD=more info - MillenniumMusicProjectFormat - SYNTAX=SongTitle{Subtitle}[miscInfo](Lyricist;Composer;Date,Artist,Location,State,Country) YEAR: 1989
EXTT0=
EXTT1=
EXTT2=
EXTT3=
EXTT4=
EXTT5=
EXTT6=
EXTT7=
EXTT8=
EXTT9=
PLAYORDER=
